<?xml version="1.0" encoding="UTF-8"?>
<svg version="1.1" xmlns="http://www.w3.org/2000/svg" width="1101" height="1101">
<path d="M0 0 C363.33 0 726.66 0 1101 0 C1101 363.33 1101 726.66 1101 1101 C737.67 1101 374.34 1101 0 1101 C0 737.67 0 374.34 0 0 Z " fill="#FEFEFE" transform="translate(0,0)"/>
<path d="M0 0 C0.78029607 2.81978385 1.18261338 5.4624635 1.35717773 8.38085938 C1.41077957 9.24661591 1.46438141 10.11237244 1.51960754 11.00436401 C1.60078072 12.40986008 1.60078072 12.40986008 1.68359375 13.84375 C1.74338913 14.82916779 1.80318451 15.81458557 1.86479187 16.8298645 C2.05934167 20.05303583 2.24844221 23.27650228 2.4375 26.5 C2.57052248 28.71795291 2.70382499 30.93588904 2.83740234 33.15380859 C3.45344589 43.43701857 4.04727126 53.72129804 4.60546875 64.0078125 C4.65076218 64.83968079 4.6960556 65.67154907 4.74272156 66.52862549 C4.95144763 70.37495304 5.15608217 74.22142291 5.35327148 78.06835938 C5.42557224 79.4335962 5.49791654 80.79883072 5.5703125 82.1640625 C5.62977051 83.32373535 5.68922852 84.4834082 5.75048828 85.67822266 C6.0114161 89.1519838 6.50574724 92.55243148 7 96 C7.19217874 98.37437501 7.35764798 100.75102373 7.5 103.12890625 C7.56050034 104.12476746 7.56050034 104.12476746 7.6222229 105.14074707 C7.75122244 107.28116086 7.8758105 109.42180218 8 111.5625 C8.08765783 113.03898528 8.17538617 114.51546637 8.26318359 115.99194336 C8.95003022 127.65657661 9.52549758 139.32474313 10 151 C9.34 151 8.68 151 8 151 C7.67 149.783125 7.34 148.56625 7 147.3125 C1.246302 130.13244401 -11.85389719 115.69112435 -27.625 107.25 C-44.58778143 99.24488608 -61.44040049 97.92609161 -79.6875 102.0625 C-80.49340576 102.24159912 -81.29931152 102.42069824 -82.12963867 102.60522461 C-90.48846923 104.71642829 -96.8383968 108.19125184 -105 112 C-105 76.69 -105 41.38 -105 5 C-94.048125 4.360625 -83.09625 3.72125 -71.8125 3.0625 C-66.69584839 2.76291382 -66.69584839 2.76291382 -61.47583008 2.45727539 C-35.70731813 0.9542787 -35.70731813 0.9542787 -23.8125 0.375 C-23.0222493 0.33572891 -22.2319986 0.29645782 -21.4178009 0.2559967 C-14.277547 -0.07701219 -7.14673614 -0.0988028 0 0 Z " fill="#BCD83C" transform="translate(339,411)"/>
<path d="M0 0 C10.55220806 7.97793313 15.15715092 21.53363142 17.05078125 34.11328125 C18.11774318 41.94435976 18.32114923 49.7003303 18.27734375 57.59375 C18.27411102 58.6470752 18.27411102 58.6470752 18.27081299 59.72167969 C18.17266915 79.66359895 15.27263218 101.39863265 1.16015625 116.671875 C-3.63916553 121.25917855 -8.74045678 123.72756956 -15.03515625 125.71875 C-15.58091309 125.8938208 -16.12666992 126.0688916 -16.68896484 126.24926758 C-20.06918055 126.92566246 -23.43676925 126.92209308 -26.87109375 126.95703125 C-27.62806549 126.965103 -28.38503723 126.97317474 -29.16494751 126.98149109 C-30.7635878 126.99529217 -32.36225707 127.00603202 -33.9609375 127.01391602 C-35.59025753 127.02544729 -37.21953945 127.04591744 -38.84863281 127.07543945 C-41.21054589 127.11821388 -43.57134096 127.13429602 -45.93359375 127.14453125 C-46.6556601 127.16203934 -47.37772644 127.17954742 -48.12167358 127.19758606 C-53.23408487 127.1758265 -56.26544384 126.18937373 -60.03515625 122.71875 C-62.33045981 116.77334755 -62.33136337 111.09918145 -62.32568359 104.78222656 C-62.33575943 103.1639521 -62.33575943 103.1639521 -62.34603882 101.51298523 C-62.36497419 97.96173451 -62.36893983 94.41067299 -62.37109375 90.859375 C-62.37752134 88.38791832 -62.38424967 85.9164624 -62.39126587 83.44500732 C-62.40322497 78.27370436 -62.40694774 73.10246816 -62.40576172 67.93115234 C-62.40555782 61.29401548 -62.43293937 54.65730339 -62.46730614 48.02026749 C-62.4894944 42.92116309 -62.49360186 37.82216258 -62.49254227 32.72301483 C-62.49490736 30.27490515 -62.50378158 27.826793 -62.519207 25.37873077 C-62.53871685 21.96474408 -62.53308923 18.55169585 -62.52099609 15.13769531 C-62.53223511 14.12154648 -62.54347412 13.10539764 -62.55505371 12.05845642 C-62.54666473 11.13047745 -62.53827576 10.20249847 -62.52963257 9.24639893 C-62.5307221 8.43970387 -62.53181164 7.6330088 -62.53293419 6.80186844 C-62.03515625 4.71875 -62.03515625 4.71875 -60.22764015 3.03171921 C-57.09217715 1.15404687 -53.76645857 -0.09328068 -50.34765625 -1.34375 C-49.67798828 -1.59962891 -49.00832031 -1.85550781 -48.31835938 -2.11914062 C-32.29370396 -8.07290467 -14.88955297 -9.37384525 0 0 Z " fill="#BCD83C" transform="translate(296.03515625,546.28125)"/>
<path d="M0 0 C7.92 0 15.84 0 24 0 C24 0.66 24 1.32 24 2 C23.21625 2.268125 22.4325 2.53625 21.625 2.8125 C18.71885077 3.84814432 18.71885077 3.84814432 17 7 C16.71447011 8.96179563 16.71447011 8.96179563 16.77967834 11.12782288 C16.7812645 11.96732483 16.78285065 12.80682678 16.78448486 13.67176819 C16.79638855 14.5896965 16.80829224 15.50762482 16.82055664 16.45336914 C16.82734688 17.90759781 16.82734688 17.90759781 16.83427429 19.39120483 C16.84524368 21.4996056 16.86075626 23.60798644 16.88023567 25.71632576 C16.91036964 29.05882591 16.92720021 32.40115152 16.94029236 35.74375916 C16.98005581 45.24882148 17.0448696 54.75367443 17.11645508 64.25854492 C17.15931189 70.07156646 17.18732491 75.88451595 17.20675468 81.69766045 C17.21728754 83.9083453 17.23364577 86.11901069 17.25605965 88.32960701 C17.2874616 91.43345534 17.3000658 94.53688567 17.30883789 97.64086914 C17.32276581 98.54462784 17.33669373 99.44838654 17.3510437 100.37953186 C17.34049888 107.72389138 16.26353711 115.36747393 11.8125 121.4375 C4.96117314 127.67982003 -2.93186554 127.52031828 -11.75 127.5 C-12.8534375 127.52835938 -13.956875 127.55671875 -15.09375 127.5859375 C-25.92643843 127.61136635 -35.40804186 124.46677315 -43.3203125 116.8828125 C-54.1037216 104.79536323 -54.63579485 90.4134312 -54 75 C-53.03466847 63.70087359 -46.49642878 54.17162179 -38 47 C-30.41298226 41.58070161 -23.05451851 41.43409259 -14 42 C-9.38 43.65 -4.76 45.3 0 47 C0 31.49 0 15.98 0 0 Z " fill="#292727" transform="translate(834,418)"/>
<path d="M0 0 C3.64581687 -0.02887512 7.29160463 -0.04675585 10.9375 -0.0625 C12.49887695 -0.07506836 12.49887695 -0.07506836 14.09179688 -0.08789062 C15.57583008 -0.09272461 15.57583008 -0.09272461 17.08984375 -0.09765625 C18.46450806 -0.10551147 18.46450806 -0.10551147 19.86694336 -0.11352539 C22 0 22 0 23 1 C23.09295815 2.44289787 23.11746513 3.89029785 23.11352539 5.33618164 C23.11344986 6.2570607 23.11337433 7.17793976 23.11329651 8.12672424 C23.10813522 9.12775681 23.10297394 10.12878937 23.09765625 11.16015625 C23.0962413 12.17975937 23.09482635 13.19936249 23.09336853 14.24986267 C23.08775097 17.52077107 23.0751955 20.79161213 23.0625 24.0625 C23.05748726 26.27408756 23.05292396 28.48567618 23.04882812 30.69726562 C23.03777584 36.13153357 23.02102063 41.56576197 23 47 C24.00957764 46.64558838 25.01915527 46.29117676 26.05932617 45.92602539 C27.40791148 45.46202758 28.756633 44.99842553 30.10546875 44.53515625 C30.76800659 44.30139282 31.43054443 44.06762939 32.11315918 43.82678223 C41.05965182 40.77690394 49.15624236 40.82647412 57.8203125 44.8125 C67.10814185 49.87253606 72.5308718 59.25086023 76 69 C78.85402742 79.45216663 78.56932461 94.17164141 74 104 C73.58621094 104.92039062 73.17242187 105.84078125 72.74609375 106.7890625 C68.20113544 115.97805178 61.69762403 122.39968449 52 126 C46.0998819 127.3887518 40.22017651 127.26231134 34.1875 127.3125 C33.03701172 127.34150391 31.88652344 127.37050781 30.70117188 127.40039062 C23.62314848 127.45312089 18.99357188 126.85250742 13 123 C9.31885648 119.12511208 6.74146757 115.3832652 6.76622009 109.94847107 C6.76426384 108.75243004 6.76426384 108.75243004 6.76226807 107.53222656 C6.77102966 106.66621826 6.77979126 105.80020996 6.78881836 104.90795898 C6.7901326 103.98870132 6.79144684 103.06944366 6.7928009 102.12232971 C6.79929635 99.08014675 6.81974133 96.03821458 6.83984375 92.99609375 C6.84611727 90.87582166 6.85135633 88.75554628 6.85560608 86.63526917 C6.86891983 81.04497937 6.89334279 75.45479846 6.92095947 69.86456299 C6.96402277 60.9421975 6.99393261 52.01980569 7.0170002 43.09736824 C7.0271539 39.99166258 7.04421903 36.88605037 7.06199646 33.78038025 C7.60929127 18.69341504 7.60929127 18.69341504 5 4 C2.49552484 2.78130071 2.49552484 2.78130071 0 2 C0 1.34 0 0.68 0 0 Z " fill="#2A2828" transform="translate(434,418)"/>
<path d="M0 0 C0.79277344 0.00974854 1.58554687 0.01949707 2.40234375 0.02954102 C13.11993915 0.35189936 20.34138756 3.50885547 28.08984375 11.01171875 C35.73618166 19.59829352 38.81318817 30.04781288 38.625 41.375 C38.61557373 42.25454346 38.60614746 43.13408691 38.59643555 44.0402832 C38.3064323 56.49424721 34.06642304 67.41604387 25.25 76.4375 C15.5169961 83.94581729 5.39179208 85.61336452 -6.75 84.4375 C-10.12237159 83.5686357 -12.81345988 82.29093755 -15.75 80.4375 C-16.43449219 80.025 -17.11898437 79.6125 -17.82421875 79.1875 C-25.55579233 74.003664 -31.18011908 65.82428253 -34.08984375 57.01953125 C-36.72028354 42.74667158 -36.43046803 27.46397005 -28.0625 15.25 C-20.39077698 5.83470356 -12.43289648 -0.170767 0 0 Z " fill="#272525" transform="translate(734.75,460.5625)"/>
<path d="M0 0 C4.5182512 -0.11565489 9.03124481 -0.21490154 13.54980469 -0.2746582 C15.0822095 -0.29959759 16.61449792 -0.33356266 18.14648438 -0.37719727 C28.43284008 -0.66255635 37.20488147 -0.41590553 45.13037109 6.9909668 C52.07933233 14.23564849 53.45956757 20.95098651 53.3984375 30.68359375 C53.40130768 31.69792984 53.40417786 32.71226593 53.40713501 33.75733948 C53.40916924 35.89462851 53.40368441 38.03193643 53.39111328 40.16918945 C53.3750677 43.42376769 53.39097574 46.67710099 53.41015625 49.93164062 C53.40817338 52.01562772 53.4043288 54.09961404 53.3984375 56.18359375 C53.40451019 57.14841171 53.41058289 58.11322968 53.4168396 59.10728455 C53.34860462 65.72967495 52.69044947 71.77757529 48.28125 77.05859375 C47.6934375 77.51363281 47.105625 77.96867188 46.5 78.4375 C45.9121875 78.91058594 45.324375 79.38367188 44.71875 79.87109375 C39.42106328 83.35071071 32.44810094 82.22533766 26.375 82.25 C25.12847656 82.270625 23.88195312 82.29125 22.59765625 82.3125 C12.59570705 82.35474688 4.74145593 81.13467956 -3.20703125 74.8203125 C-6.30134776 71.67880598 -8.15214693 67.96534993 -10 64 C-10.33 63.34 -10.66 62.68 -11 62 C-11.92443326 53.65368827 -11.08350845 46.83318113 -6 40 C0.75290256 33.19574457 7.90975555 29.86883804 17.46875 29.70703125 C19.81268043 29.72678347 22.15652432 29.76228266 24.5 29.8125 C26.30597656 29.83280273 26.30597656 29.83280273 28.1484375 29.85351562 C31.09942973 29.88864648 34.04947412 29.93784004 37 30 C36.82482141 27.76798314 36.60842372 25.53917918 36.375 23.3125 C36.25898437 22.07113281 36.14296875 20.82976562 36.0234375 19.55078125 C34.98321242 15.94175605 33.92825248 14.12526205 30.86816406 11.90454102 C27.25380469 10.15451469 23.63757464 10.2212877 19.6875 10.3125 C18.41990845 10.32639771 18.41990845 10.32639771 17.12670898 10.34057617 C10.31908358 10.60187631 5.98448737 12.26876603 1 17 C-0.32 17.99 -1.64 18.98 -3 20 C-2.01 13.4 -1.02 6.8 0 0 Z " fill="#292727" transform="translate(526,462)"/>
<path d="M0 0 C7.59 0 15.18 0 23 0 C23 23.43 23 46.86 23 71 C28.16171313 67.58113111 28.16171313 67.58113111 32.69921875 63.6796875 C33.66927856 62.75929688 33.66927856 62.75929688 34.65893555 61.8203125 C35.32836182 61.17835938 35.99778809 60.53640625 36.6875 59.875 C38.10401057 58.53889699 39.5206779 57.20296016 40.9375 55.8671875 C43.41604611 53.51720149 45.87419546 51.14945812 48.3125 48.7578125 C49.26125 47.84773438 50.21 46.93765625 51.1875 46 C52.00605469 45.195625 52.82460938 44.39125 53.66796875 43.5625 C56 42 56 42 58.65625 42.12109375 C61.52239495 43.19589811 63.00698343 44.71172172 65 47 C63.45615972 50.68994791 61.21186057 53.0239451 58.375 55.8125 C57.48425781 56.6890625 56.59351563 57.565625 55.67578125 58.46875 C52.7747489 61.21308425 49.79081838 63.81497213 46.69140625 66.33203125 C44.65815137 68.3371117 43.43150203 70.54030302 42 73 C50.28730903 86.92765333 58.65458563 100.78414179 67.33813477 114.46875 C67.93553467 115.41492188 68.53293457 116.36109375 69.1484375 117.3359375 C69.67614746 118.16657715 70.20385742 118.9972168 70.74755859 119.85302734 C72 122 72 122 73 125 C58.12679038 126.50572426 58.12679038 126.50572426 53.69921875 123.37109375 C51.86540075 120.68179738 50.46032531 117.91034243 49 115 C47.24619457 112.16965731 45.3980162 109.40281164 43.5625 106.625 C42.61813537 105.15861743 41.67541158 103.69117678 40.734375 102.22265625 C37.69208603 97.49983424 34.54247303 92.85446472 31.36328125 88.22265625 C30 86 30 86 30 84 C26.535 84.99 26.535 84.99 23 86 C23 98.87 23 111.74 23 125 C14.88888889 125 14.88888889 125 10 121 C7.41362018 118.09064894 6.62494561 116.29702242 6.62145996 112.41456604 C6.61325729 111.49915039 6.60505463 110.58373474 6.59660339 109.64057922 C6.60275162 108.64358505 6.60889984 107.64659088 6.61523438 106.61938477 C6.6098616 105.56369293 6.60448883 104.5080011 6.59895325 103.4203186 C6.5891694 101.12808119 6.58623292 98.83580672 6.58930969 96.54355049 C6.59378065 92.91654353 6.57980742 89.2900263 6.56091309 85.66307068 C6.52409755 77.96288849 6.51041481 70.26275726 6.5 62.5625 C6.48793108 53.64370867 6.46643532 44.72515523 6.41999817 35.80647087 C6.40640351 32.23177187 6.4106035 28.65737168 6.41540527 25.08265686 C6.4060658 22.8917706 6.39589727 20.70088766 6.38476562 18.51000977 C6.39091385 17.51503983 6.39706207 16.52006989 6.40339661 15.49494934 C6.33993805 8.39117515 5.11424287 5.11424287 0 0 Z " fill="#282626" transform="translate(633,419)"/>
<path d="M0 0 C5.38935067 -0.09952633 10.7781561 -0.17177659 16.16821289 -0.21972656 C17.99838593 -0.23973374 19.82849592 -0.26694851 21.65844727 -0.30175781 C24.30240512 -0.35076003 26.94551165 -0.37307761 29.58984375 -0.390625 C30.79978249 -0.42159271 30.79978249 -0.42159271 32.03416443 -0.45318604 C37.40660421 -0.45526664 41.26432571 0.66229632 46.05690002 3.0960083 C48.88855498 4.41338394 50.93063426 4.4670774 54 4 C56.35416349 3.05007438 58.68895182 2.05047644 61 1 C67.05284976 -0.75214072 73.4848034 -1.01527648 79.25 1.6875 C82.73169573 3.64638646 85.35958902 5.98238745 88 9 C88.5330928 9.6018512 89.06618561 10.20370239 89.61543274 10.8237915 C91.3341573 13.52521533 91.36332608 15.13434826 91.34057617 18.31933594 C91.34034958 19.38013367 91.34012299 20.4409314 91.33988953 21.53387451 C91.32440567 22.67253967 91.30892181 23.81120483 91.29296875 24.984375 C91.28872391 26.15510559 91.28447906 27.32583618 91.28010559 28.53204346 C91.26331175 32.27159616 91.22565704 36.01061015 91.1875 39.75 C91.17245413 42.28514847 91.15876556 44.82030538 91.14648438 47.35546875 C91.11340585 53.57049633 91.06319883 59.78520968 91 66 C83.9072604 66.72129555 83.9072604 66.72129555 80.03540039 63.64306641 C77.03820982 59.34410383 77.34488912 54.77460891 77.43359375 49.7109375 C77.42795914 48.73009186 77.42232452 47.74924622 77.41651917 46.73867798 C77.40010183 43.61696144 77.41559441 40.49666688 77.4375 37.375 C77.45409071 34.24632787 77.46320589 31.11858497 77.44776917 27.98989868 C77.43848337 26.0466788 77.44767281 24.10326245 77.47740173 22.1602478 C77.52341617 16.92858379 77.52341617 16.92858379 75.09790039 12.43603516 C70.77899586 9.47969902 67.12357278 9.62834187 62 10 C58.68846736 10.98535442 58.68846736 10.98535442 56 13 C55.87709282 14.65644366 55.82216092 16.31798993 55.79467773 17.97875977 C55.77473251 19.03978409 55.75478729 20.10080841 55.73423767 21.19398499 C55.71752518 22.348134 55.70081268 23.50228302 55.68359375 24.69140625 C55.66281265 25.86638168 55.64203156 27.04135712 55.62062073 28.25193787 C55.55499876 32.02206324 55.4961817 35.79226082 55.4375 39.5625 C55.3943268 42.11133573 55.35071292 44.66016403 55.30664062 47.20898438 C55.19930451 53.4725814 55.09807309 59.73625136 55 66 C50.71 66 46.42 66 42 66 C41.99589111 64.44571289 41.99178223 62.89142578 41.98754883 61.29003906 C41.96578924 55.52733119 41.91153129 49.76530919 41.84741211 44.00292969 C41.82420461 41.50820485 41.80982999 39.01338165 41.80444336 36.51855469 C41.79517443 32.93361923 41.75422532 29.35023683 41.70703125 25.765625 C41.7109639 24.64883362 41.71489655 23.53204224 41.71894836 22.38140869 C41.69930527 21.34063171 41.67966217 20.29985474 41.65942383 19.22753906 C41.65276199 18.31264709 41.64610016 17.39775513 41.63923645 16.45513916 C41.06128123 13.23138545 41.06128123 13.23138545 36 10 C30.72 9.67 25.44 9.34 20 9 C20 27.81 20 46.62 20 66 C15.71 66 11.42 66 7 66 C7.00112793 64.17307617 7.00225586 62.34615234 7.00341797 60.46386719 C7.00014634 54.42463505 6.96931914 48.38603432 6.9197216 42.34701157 C6.89065989 38.68575817 6.87263175 35.02514538 6.87988281 31.36376953 C6.88647503 27.82954083 6.86400119 24.29657808 6.82144547 20.76261139 C6.80489652 18.75967308 6.81837916 16.75655975 6.83224487 14.75360107 C7.02653461 8.63153635 7.02653461 8.63153635 4.61090088 3.2989502 C2.81333618 2.03720921 2.81333618 2.03720921 0 1 C0 0.67 0 0.34 0 0 Z " fill="#2A2828" transform="translate(740,606)"/>
<path d="M0 0 C4.14654634 -0.10856412 8.29021168 -0.18760125 12.4375 -0.25 C14.18450195 -0.30027344 14.18450195 -0.30027344 15.96679688 -0.3515625 C23.92477784 -0.44122989 30.76276239 0.17495362 36.87475586 5.69238281 C42.36434513 11.38351145 43.31066826 18.09162437 43.3359375 25.8046875 C43.3425943 26.52810333 43.3492511 27.25151917 43.35610962 27.99685669 C43.3661727 29.51789838 43.37092862 31.03898365 43.37060547 32.56005859 C43.3749761 34.86240801 43.41135187 37.16283273 43.44921875 39.46484375 C43.56667332 54.6633206 43.56667332 54.6633206 39 61 C31.08830665 67.45852518 21.70292651 66.58621848 12 66 C4.88015013 64.95690371 -0.22155304 61.29737333 -5 56 C-8.89371976 50.55059083 -8.99227071 45.49937315 -8 39 C-5.18219607 31.97683719 0.18772642 27.14470846 7 24 C11.0631839 23.3253815 14.95871147 23.423047 19.0625 23.625 C20.11888672 23.65207031 21.17527344 23.67914062 22.26367188 23.70703125 C24.84464426 23.7771029 27.42119007 23.8752653 30 24 C29.89570603 22.39624486 29.7754372 20.79352324 29.6484375 19.19140625 C29.58317871 18.29881104 29.51791992 17.40621582 29.45068359 16.48657227 C28.77861003 12.77851744 26.96339615 11.18726859 24 9 C18.53893672 7.17964557 12.43965896 7.12265488 7.0625 9.3125 C4.52660946 10.70982744 2.80222146 11.77372643 1 14 C0.34 13.67 -0.32 13.34 -1 13 C-0.67 8.71 -0.34 4.42 0 0 Z " fill="#282626" transform="translate(525,607)"/>
<path d="M0 0 C5.39241058 4.71835926 8.45052174 11.16752242 8.9453125 18.37109375 C8.96335937 19.11488281 8.98140625 19.85867188 9 20.625 C9.05800781 22.12740234 9.05800781 22.12740234 9.1171875 23.66015625 C9.33693119 34.09798172 8.57255014 45.79781138 1.6640625 54.26171875 C0.49683735 55.43906435 -0.74604265 56.54049635 -2 57.625 C-2.33 57.955 -2.66 58.285 -3 58.625 C-4.70772358 58.71213831 -6.41898649 58.73200007 -8.12890625 58.72265625 C-9.68061523 58.71782227 -9.68061523 58.71782227 -11.26367188 58.71289062 C-12.35228516 58.70451172 -13.44089844 58.69613281 -14.5625 58.6875 C-16.2012207 58.68073242 -16.2012207 58.68073242 -17.87304688 58.67382812 C-20.58208495 58.66199826 -23.29101599 58.64551543 -26 58.625 C-29.66370694 52.02068618 -29.38385183 45.86078281 -29.25 38.4375 C-29.23614258 37.20330322 -29.22228516 35.96910645 -29.20800781 34.69750977 C-29.15729933 31.00607604 -29.08078539 27.31588233 -29 23.625 C-28.98453125 22.56571289 -28.9690625 21.50642578 -28.953125 20.41503906 C-28.90915881 17.62959777 -28.83672674 14.84689844 -28.75 12.0625 C-28.73614258 11.24305908 -28.72228516 10.42361816 -28.70800781 9.5793457 C-28.47080998 4.11851151 -28.47080998 4.11851151 -26.13671875 1.671875 C-18.54771047 -2.04632284 -7.90537346 -3.6753052 0 0 Z " fill="#FCFCFC" transform="translate(485,474.375)"/>
<path d="M0 0 C5.37445963 1.72388328 9.01869221 5.28168375 12 10 C15.0456383 16.52430574 15.51053505 22.16149198 15.4375 29.3125 C15.43065186 30.3327124 15.42380371 31.3529248 15.41674805 32.40405273 C15.22941836 41.16645158 13.90145156 48.30060331 8.6875 55.5 C4.65153189 59.25438894 1.00637395 60.74464332 -4.4375 61.4375 C-10.01200571 60.75291158 -14.16866569 58.72959351 -18.25 54.875 C-25.13189838 43.56902409 -26.90682657 30.6490019 -24.3515625 17.71875 C-20.29123723 5.36425602 -13.02737729 -1.16048476 0 0 Z " fill="#FBFBFB" transform="translate(741,473)"/>
<path d="M0 0 C0.95648437 -0.04898437 1.91296875 -0.09796875 2.8984375 -0.1484375 C8.54148411 0.64419169 13.45857476 3.04119738 18.625 5.375 C18.64998554 10.97598965 18.66799321 16.57694583 18.67993164 22.17797852 C18.68491616 24.07772386 18.69170619 25.97746546 18.70043945 27.87719727 C18.80461535 51.14518944 18.80461535 51.14518944 17.625 59.375 C15.28430455 61.71569545 9.57771832 60.608241 6.4375 60.625 C5.01727539 60.6559375 5.01727539 60.6559375 3.56835938 60.6875 C-1.83635081 60.71767284 -5.73557206 60.47531613 -10.375 57.375 C-17.56966744 48.94696099 -17.87672089 38.32893251 -17.8125 27.75 C-17.83248047 26.574375 -17.85246094 25.39875 -17.87304688 24.1875 C-17.86881321 16.65157391 -17.39427586 10.47570837 -11.85668945 4.82592773 C-7.81821299 1.33606059 -5.25444968 0.17928568 0 0 Z " fill="#FBFBFB" transform="translate(815.375,472.625)"/>
<path d="M0 0 C1.37394884 -0.08243693 2.74940598 -0.1398309 4.125 -0.1875 C4.89070313 -0.22230469 5.65640625 -0.25710938 6.4453125 -0.29296875 C10.47429632 0.16907068 13.65056355 1.33346157 16.26855469 4.56665039 C17.54129065 6.54503844 18.68799775 8.55877924 19.8125 10.625 C20.23192871 11.36613037 20.65135742 12.10726074 21.08349609 12.87084961 C22.41153304 15.23559131 23.71028986 17.61415632 25 20 C25.43908691 20.81194824 25.87817383 21.62389648 26.33056641 22.46044922 C28.92734217 27.28634129 31.47881312 32.13423112 34 37 C34.66 37 35.32 37 36 37 C36.45850342 36.19369141 36.91700684 35.38738281 37.3894043 34.55664062 C39.11202198 31.5291808 40.83615493 28.50259414 42.5612793 25.4765625 C43.30373834 24.1735171 44.04561407 22.87013914 44.78686523 21.56640625 C46.54984389 18.46603651 48.31915276 15.36977178 50.10620117 12.28320312 C51.24527707 10.30843289 52.37002271 8.32514759 53.46606445 6.32617188 C56.38609766 1.19519947 56.38609766 1.19519947 59.45703125 0.21875 C60.62298828 0.35796875 60.62298828 0.35796875 61.8125 0.5 C62.60269531 0.5721875 63.39289062 0.644375 64.20703125 0.71875 C64.79871094 0.8115625 65.39039063 0.904375 66 1 C64.62196108 5.53556227 62.79656877 9.52065801 60.55078125 13.69140625 C60.04722359 14.63124611 60.04722359 14.63124611 59.53349304 15.59007263 C58.46422418 17.5832811 57.38850423 19.57292098 56.3125 21.5625 C55.60959511 22.87021117 54.9071178 24.17815226 54.20507812 25.48632812 C53.85917633 26.12896103 53.51327454 26.77159393 53.15689087 27.43370056 C52.45886847 28.73475904 51.76485731 30.03797724 51.07479858 31.34327698 C49.46001463 34.38120654 47.80819087 37.2985192 45.94580078 40.19702148 C40.50697919 48.94080275 39.96613837 56.43209124 40.19726562 66.45922852 C40.25047341 68.95974803 40.23827498 71.45417217 40.21875 73.95507812 C40.23055003 75.56253263 40.24604087 77.16996524 40.265625 78.77734375 C40.25985443 79.88371437 40.25985443 79.88371437 40.25396729 81.01243591 C40.44919307 87.1492602 41.59399452 87.71279342 46 93 C39.73 93 33.46 93 27 93 C27.13535156 88.43671875 27.13535156 88.43671875 27.2734375 83.78125 C27.91093338 52.65369665 27.91093338 52.65369665 13.92626953 25.60009766 C10.54798755 21.04005924 7.88153002 16.07599192 5.125 11.125 C4.60768311 10.23095459 4.09036621 9.33690918 3.55737305 8.41577148 C2.85221558 7.19289429 2.85221558 7.19289429 2.1328125 5.9453125 C1.71918457 5.22875488 1.30555664 4.51219727 0.87939453 3.77392578 C0 2 0 2 0 0 Z " fill="#292727" transform="translate(455,579)"/>
<path d="M0 0 C3.48254285 1.32007055 5.71526109 2.31029807 8.125 5.1875 C8.60195312 5.73792969 9.07890625 6.28835938 9.5703125 6.85546875 C13.50653012 12.75979518 14.4387438 17.68836346 14.36076355 24.62437439 C14.36332682 25.4674836 14.3658901 26.31059281 14.36853105 27.17925078 C14.37345344 29.99071044 14.35700163 32.80162732 14.34057617 35.61303711 C14.33972957 37.63374824 14.3402057 39.6544603 14.34190369 41.6751709 C14.34276375 47.15193554 14.325136 52.62850272 14.30418181 58.10522151 C14.28541701 63.83206475 14.28366472 69.55891262 14.28010559 75.28578186 C14.27078457 86.12641995 14.24616994 96.96696718 14.21605712 107.80756527 C14.18251496 120.15088988 14.16602755 132.49421885 14.15097082 144.8375777 C14.1196205 170.22510215 14.06685881 195.61254598 14 221 C13.67 221 13.34 221 13 221 C9.50603491 171.40075054 6.48787403 121.77342456 3.49245262 72.14200687 C3.10161277 65.67030254 2.70730506 59.19881772 2.31057072 52.72747231 C1.97556025 47.26153698 1.644143 41.79539148 1.31497192 36.32910156 C1.19080937 34.27580204 1.06543374 32.22257542 0.93869019 30.16943359 C0.31813689 20.09695706 -0.18711577 10.09616643 0 0 Z " fill="#BBD73B" transform="translate(183,424)"/>
<path d="M0 0 C1.92875977 0.00966797 1.92875977 0.00966797 3.89648438 0.01953125 C5.23437779 0.03623649 6.57226842 0.05316631 7.91015625 0.0703125 C9.27538408 0.08035928 10.64061905 0.08948214 12.00585938 0.09765625 C15.32820151 0.1211357 18.65045202 0.15700393 21.97265625 0.1953125 C22.96265625 6.7953125 23.95265625 13.3953125 24.97265625 20.1953125 C24.31265625 20.1953125 23.65265625 20.1953125 22.97265625 20.1953125 C21.42589241 18.28567152 20.08382775 16.27046841 18.703125 14.23828125 C15.95121089 10.98940748 13.35003337 9.42329216 9.140625 8.7265625 C2.18115069 8.65359291 -2.74493779 9.41943861 -8.02734375 14.1953125 C-9.4275523 16.99572961 -9.1909771 19.34833289 -9.23266602 22.48095703 C-9.24751541 23.4469986 -9.24751541 23.4469986 -9.26266479 24.43255615 C-9.29428874 26.56437485 -9.31904062 28.69621585 -9.34375 30.828125 C-9.36431877 32.30500879 -9.38531522 33.78188668 -9.40672302 35.25875854 C-9.46195174 39.14836861 -9.51135745 43.03803187 -9.55957031 46.92773438 C-9.60977952 50.89588157 -9.66546861 54.86395139 -9.72070312 58.83203125 C-9.82829449 66.61972801 -9.92923093 74.4074895 -10.02734375 82.1953125 C-15.30734375 82.1953125 -20.58734375 82.1953125 -26.02734375 82.1953125 C-26.11796104 73.85852203 -26.19124078 65.52211888 -26.23459244 57.18496704 C-26.25540631 53.3130656 -26.28360885 49.44152058 -26.32910156 45.56982422 C-26.37278304 41.82856782 -26.39652742 38.08765276 -26.40685272 34.34616089 C-26.41420439 32.92368197 -26.42856013 31.50122027 -26.45026398 30.07888794 C-26.58635202 20.78510713 -26.3076869 14.26112068 -20.1328125 6.953125 C-19.49988281 6.41429687 -18.86695313 5.87546875 -18.21484375 5.3203125 C-17.58964844 4.76601563 -16.96445312 4.21171875 -16.3203125 3.640625 C-11.25061408 0.44507404 -5.87357363 -0.05220954 0 0 Z " fill="#282626" transform="translate(610.02734375,461.8046875)"/>
<path d="M0 0 C16.17 0 32.34 0 49 0 C47.5937346 3.5156635 46.25731176 6.49712396 44.41796875 9.74609375 C43.90395508 10.65568848 43.38994141 11.5652832 42.86035156 12.50244141 C42.03229004 13.95529541 42.03229004 13.95529541 41.1875 15.4375 C40.61870117 16.44216309 40.04990234 17.44682617 39.46386719 18.48193359 C36.45989751 23.76565755 33.40910556 29.01673354 30.28515625 34.23046875 C29.69259033 35.22054932 29.10002441 36.21062988 28.48950195 37.23071289 C27.35041407 39.12599526 26.20465598 41.01728849 25.05151367 42.90405273 C24.53435791 43.76329346 24.01720215 44.62253418 23.484375 45.5078125 C22.79939941 46.63147217 22.79939941 46.63147217 22.10058594 47.77783203 C20.90938468 50.18295933 20.41050189 52.3573214 20 55 C24.06330657 54.91895774 28.12513061 54.80612566 32.1875 54.6875 C33.33798828 54.66494141 34.48847656 54.64238281 35.67382812 54.61914062 C36.78564453 54.58369141 37.89746094 54.54824219 39.04296875 54.51171875 C40.57473755 54.47244263 40.57473755 54.47244263 42.13745117 54.43237305 C45.40800518 53.93837295 47.3384116 52.93588946 50 51 C50.495 50.01 50.495 50.01 51 49 C51.66 49 52.32 49 53 49 C53 53.95 53 58.9 53 64 C35.51 64 18.02 64 0 64 C1.74743276 59.6314181 3.77925214 55.81545722 6.1875 51.8125 C7.07909572 50.31177421 7.9696484 48.81042843 8.859375 47.30859375 C9.35244141 46.4769873 9.84550781 45.64538086 10.35351562 44.78857422 C13.23490565 39.90849758 16.0888571 35.01258051 18.93081665 30.10946655 C19.92049193 28.40430409 20.91467555 26.70176082 21.90893555 24.99926758 C22.52551025 23.93474365 23.14208496 22.87021973 23.77734375 21.7734375 C24.32640381 20.82903809 24.87546387 19.88463867 25.44116211 18.91162109 C27.15761823 15.70559827 28.56747609 12.34255579 30 9 C20.1 9 10.2 9 0 9 C0 6.03 0 3.06 0 0 Z " fill="#282626" transform="translate(580,608)"/>
<path d="M0 0 C3.96 0 7.92 0 12 0 C12.00142502 1.16431549 12.00285004 2.32863098 12.00431824 3.52822876 C12.02099308 14.50479519 12.06378182 25.48099112 12.13209057 36.45736122 C12.16637047 42.10037163 12.19147216 47.74311101 12.19555664 53.38623047 C12.19983736 58.83296371 12.22828194 64.27908546 12.27343178 69.7256279 C12.28641392 71.80278333 12.29071194 73.88001191 12.28615379 75.95720291 C12.28125303 78.86878607 12.30731751 81.77857846 12.34057617 84.68994141 C12.33195053 85.54733917 12.32332489 86.40473694 12.31443787 87.28811646 C12.42787724 93.21835034 13.76213454 95.83222255 18 100 C16.12706739 100.13637859 14.25119131 100.23261351 12.375 100.3125 C11.33085938 100.37050781 10.28671875 100.42851563 9.2109375 100.48828125 C5.09776132 99.86279825 2.49490629 98.27653797 0 95 C-0.84870125 91.89798632 -0.76044337 88.91079631 -0.68115234 85.71166992 C-0.6820285 84.78435059 -0.68290466 83.85703125 -0.68380737 82.90161133 C-0.67963502 79.84369984 -0.63299904 76.78799585 -0.5859375 73.73046875 C-0.57474413 71.60770364 -0.56620461 69.484923 -0.56021118 67.36213684 C-0.53732422 61.78041641 -0.47840108 56.19963576 -0.4119873 50.61828613 C-0.35056253 44.92078362 -0.32319568 39.22312895 -0.29296875 33.52539062 C-0.22865858 22.34984796 -0.12627984 11.17500219 0 0 Z " fill="#272525" transform="translate(680,572)"/>
<path d="M0 0 C3.14581423 -0.02888514 6.29159469 -0.04675923 9.4375 -0.0625 C10.33533203 -0.07087891 11.23316406 -0.07925781 12.15820312 -0.08789062 C13.01220703 -0.09111328 13.86621094 -0.09433594 14.74609375 -0.09765625 C15.93223267 -0.10551147 15.93223267 -0.10551147 17.14233398 -0.11352539 C19 0 19 0 20 1 C20.09405142 2.9943173 20.11743249 4.99199543 20.11352539 6.98852539 C20.11344986 8.26977798 20.11337433 9.55103058 20.11329651 10.87110901 C20.10818909 12.27995848 20.10297309 13.68880756 20.09765625 15.09765625 C20.09579202 16.53112234 20.09436814 17.96458907 20.09336853 19.39805603 C20.08954372 23.17759957 20.07971377 26.9571049 20.06866455 30.7366333 C20.05844963 34.59069298 20.05387074 38.44475882 20.04882812 42.29882812 C20.03809146 49.86590287 20.02101549 57.43294609 20 65 C12.22998047 65.15527344 12.22998047 65.15527344 10.16015625 63.7578125 C7.30105529 59.50477264 5.87669104 57.27386823 5.87402344 52.18652344 C5.86831329 50.68421173 5.86831329 50.68421173 5.86248779 49.15155029 C5.86146057 48.06513245 5.86043335 46.9787146 5.859375 45.859375 C5.84104538 43.56900048 5.82147493 41.27863563 5.80078125 38.98828125 C5.771815 35.36946372 5.75000017 31.7512652 5.74951172 28.13232422 C5.74617634 24.64494616 5.7116149 21.15900381 5.671875 17.671875 C5.6789447 16.59355408 5.6860144 15.51523315 5.69329834 14.40423584 C5.6154662 7.83547359 5.6154662 7.83547359 2.45800781 2.27050781 C1.64686523 1.52124023 0.83572266 0.77197266 0 0 Z " fill="#2C2A2A" transform="translate(707,607)"/>
<path d="M0 0 C6.27 0 12.54 0 19 0 C19 21.45 19 42.9 19 65 C12 65 12 65 9.125 62.8125 C6.02398294 58.70821271 5.86058353 55.04615578 5.98168945 50.01367188 C6.00113113 49.04917114 6.02057281 48.08467041 6.04060364 47.09094238 C6.06458725 46.0606189 6.08857086 45.03029541 6.11328125 43.96875 C6.14540045 41.77476131 6.17595161 39.58074921 6.20507812 37.38671875 C6.2545234 33.93637354 6.31281337 30.4872657 6.39770508 27.03759766 C6.47642323 23.70194557 6.51687237 20.3676195 6.55078125 17.03125 C6.58488602 16.00092651 6.61899078 14.97060303 6.65412903 13.90905762 C6.81258239 8.72993631 6.81258239 8.72993631 4.6265564 4.24194336 C2.81774847 2.6928133 2.81774847 2.6928133 0 1 C0 0.67 0 0.34 0 0 Z " fill="#272525" transform="translate(641,607)"/>
<path d="M0 0 C0.98291016 0.00644531 1.96582031 0.01289063 2.97851562 0.01953125 C4.51475586 0.04466797 4.51475586 0.04466797 6.08203125 0.0703125 C7.11779297 0.07933594 8.15355469 0.08835937 9.22070312 0.09765625 C11.7788781 0.1212339 14.33658873 0.1541422 16.89453125 0.1953125 C17.03936167 4.63247105 17.12844877 9.06902527 17.20703125 13.5078125 C17.24892578 14.77044922 17.29082031 16.03308594 17.33398438 17.33398438 C17.35009766 18.54248047 17.36621094 19.75097656 17.3828125 20.99609375 C17.40899658 22.11153564 17.43518066 23.22697754 17.4621582 24.3762207 C16.89453125 27.1953125 16.89453125 27.1953125 14.51586914 29.06005859 C8.31481949 31.74562075 1.03910716 30.60495011 -5.10546875 28.1953125 C-9.32635473 25.50929415 -11.44272187 22.92101415 -13.10546875 18.1953125 C-13.71898837 14.05574057 -14.10954404 10.07266401 -12.0859375 6.2890625 C-8.51762247 1.89065606 -5.59888999 -0.06472705 0 0 Z " fill="#FBFBFB" transform="translate(545.10546875,503.8046875)"/>
<path d="M0 0 C0.33 0 0.66 0 1 0 C1.86201351 8.55004415 2.30065857 17.07271648 2.60546875 25.65820312 C2.76948874 29.88030385 2.95443943 34.04983812 3.52734375 38.23828125 C4.00472809 42.03762934 4.09929268 45.67356113 4.0625 49.5 C4.05347656 50.7271875 4.04445313 51.954375 4.03515625 53.21875 C4.02355469 54.1365625 4.01195312 55.054375 4 56 C-6.33807949 57.1555538 -16.61562308 57.09776087 -27 57 C-26.41738403 56.21882812 -26.41738403 56.21882812 -25.82299805 55.421875 C-24.80333155 54.05345561 -23.78582528 52.6834259 -22.76953125 51.3125 C-21.66127526 49.86418312 -20.51723351 48.44183641 -19.32421875 47.0625 C-10.09057295 36.19439276 -3.8559586 20.98207298 -1.3125 7 C-1.18294922 6.32066406 -1.05339844 5.64132812 -0.91992188 4.94140625 C-0.60696029 3.29546014 -0.30254286 1.64789301 0 0 Z " fill="#BDD83F" transform="translate(352,626)"/>
<path d="M0 0 C0.79341797 -0.00386719 1.58683594 -0.00773438 2.40429688 -0.01171875 C8.31086933 -0.00163067 8.31086933 -0.00163067 9.4375 1.125 C9.71584768 4.59633297 9.66926202 8.08132504 9.6875 11.5625 C9.708125 12.54283203 9.72875 13.52316406 9.75 14.53320312 C9.75515625 15.46970703 9.7603125 16.40621094 9.765625 17.37109375 C9.77964355 18.66551392 9.77964355 18.66551392 9.79394531 19.98608398 C9.61750488 21.04484741 9.61750488 21.04484741 9.4375 22.125 C4.7630605 25.241293 -0.08705929 24.59577202 -5.5625 24.125 C-9.83671176 22.62527657 -12.24473141 21.02861026 -14.5625 17.125 C-15.78012731 13.47211807 -15.95325851 10.96745864 -15.5625 7.125 C-11.49009865 0.30220819 -7.42452024 -0.036365 0 0 Z " fill="#FAFAFA" transform="translate(545.5625,639.875)"/>
<path d="M0 0 C3.96 0 7.92 0 12 0 C12 31.68 12 63.36 12 96 C9.36938902 93.36938902 9.76382953 91.49272026 9.75115967 87.91271973 C9.75835022 87.05964233 9.76554077 86.20656494 9.77294922 85.32763672 C9.77265717 84.43001617 9.77236511 83.53239563 9.77206421 82.60757446 C9.77346097 79.63151485 9.78903844 76.65570355 9.8046875 73.6796875 C9.8084164 71.61988461 9.81126395 69.56007995 9.81326294 67.50027466 C9.8209091 62.0717888 9.84056601 56.6434095 9.8626709 51.21496582 C9.8831082 45.67848146 9.89226012 40.14197993 9.90234375 34.60546875 C9.92381098 23.73693228 9.95795874 12.86847499 10 2 C7.36 2 4.72 2 2 2 C2.06114139 14.07403316 2.13819701 26.14784891 2.23571491 38.22164631 C2.28049067 43.8276813 2.31973085 49.43364241 2.34643555 55.03979492 C2.37239668 60.44749652 2.41274786 65.85491486 2.46318626 71.26244164 C2.47990374 73.32812166 2.49138751 75.39385072 2.49761391 77.459589 C2.50720201 80.34746806 2.53519745 83.2346144 2.56762695 86.12231445 C2.56619186 86.98114731 2.56475677 87.83998016 2.5632782 88.72483826 C2.48505648 93.08570163 2.48505648 93.08570163 4.52492046 96.7432127 C5.01169671 97.15795251 5.49847296 97.57269232 6 98 C3.13275314 97.42655063 2.1385485 97.1385485 0 95 C-0.18838354 91.98669994 -0.25164443 89.06594957 -0.22705078 86.05224609 C-0.22734283 85.12536484 -0.22763489 84.19848358 -0.22793579 83.24351501 C-0.22653889 80.17006166 -0.21096075 77.09684867 -0.1953125 74.0234375 C-0.19158365 71.89637382 -0.18873608 69.76930844 -0.18673706 67.64224243 C-0.17909052 62.03620688 -0.15943327 56.4302745 -0.1373291 50.82427979 C-0.11689264 45.10682572 -0.10774006 39.38935504 -0.09765625 33.671875 C-0.07618834 22.44787127 -0.0420401 11.2239442 0 0 Z " fill="#373535" transform="translate(680,572)"/>
<path d="M0 0 C3.6578218 2.03993908 5.66946174 3.50419262 8 7 C8.66799205 13.90258449 8.66799205 13.90258449 6.25 17.875 C3.19780056 20.75763281 1.31085388 21.76695931 -2.8125 22.5 C-7.353873 21.78762776 -9.90467228 19.29145042 -13 16 C-14.47896861 13.04206277 -14.4355582 11.29779776 -14 8 C-10.20201275 2.27380384 -7.10946739 -0.68360263 0 0 Z " fill="#A9A8A8" transform="translate(879,523)"/>
<path d="M0 0 C3.63 0 7.26 0 11 0 C11 0.33 11 0.66 11 1 C8.03 1 5.06 1 2 1 C2.33 34.33 2.66 67.66 3 102 C3.66 102.33 4.32 102.66 5 103 C3.35 103.99 1.7 104.98 0 106 C0 71.02 0 36.04 0 0 Z " fill="#B8D531" transform="translate(234,417)"/>
<path d="M0 0 C2.00522192 2.67362922 3.85712622 5.24800156 5.625 8.0625 C6.05039063 8.73410156 6.47578125 9.40570312 6.9140625 10.09765625 C8 12 8 12 9 15 C9.66 15 10.32 15 11 15 C11 15.66 11 16.32 11 17 C7.37 17 3.74 17 0 17 C0 11.39 0 5.78 0 0 Z " fill="#C1DB4B" transform="translate(198,674)"/>
<path d="M0 0 C6.0546875 -0.1953125 6.0546875 -0.1953125 8 0 C10 2 10 2 10 6 C9.34 6 8.68 6 8 6 C7.67 5.01 7.34 4.02 7 3 C5.35 2.67 3.7 2.34 2 2 C2 3.65 2 5.3 2 7 C2.94875 6.95875 3.8975 6.9175 4.875 6.875 C8 7 8 7 10 9 C10.125 11.625 10.125 11.625 10 14 C9.01 13.67 8.02 13.34 7 13 C6.3125 10.9375 6.3125 10.9375 6 9 C4.68 8.67 3.36 8.34 2 8 C2 9.65 2 11.3 2 13 C1.34 13 0.68 13 0 13 C0 8.71 0 4.42 0 0 Z " fill="#171515" transform="translate(871,527)"/>
<path d="M0 0 C0 4.62 0 9.24 0 14 C-4 13 -4 13 -6 10 C-6.36264537 6.59113355 -6.35778767 4.6474253 -4.6875 1.625 C-3 0 -3 0 0 0 Z " fill="#ADACAC" transform="translate(871,527)"/>
<path d="M0 0 C0.33 0 0.66 0 1 0 C1.33917131 4.14537705 1.67026953 8.29136218 2 12.4375 C2.09539062 13.60216797 2.19078125 14.76683594 2.2890625 15.96679688 C2.79138362 22.33551102 3.1093176 28.61175303 3 35 C2.34 35 1.68 35 1 35 C1 28.4 1 21.8 1 15 C0.34 15 -0.32 15 -1 15 C-0.67 10.05 -0.34 5.1 0 0 Z " fill="#D1E479" transform="translate(346,527)"/>
<path d="M0 0 C0.33 0 0.66 0 1 0 C2.87387655 9.77092772 3.22867275 19.10355133 3 29 C2.67 29 2.34 29 2 29 C2 25.04 2 21.08 2 17 C1.34 17 0.68 17 0 17 C0 11.39 0 5.78 0 0 Z " fill="#C4DD54" transform="translate(343,494)"/>
<path d="M0 0 C5.15171623 -0.09038099 9.91913204 0.15318867 15 1 C15 1.33 15 1.66 15 2 C8.4 2.33 1.8 2.66 -5 3 C-5 2.67 -5 2.34 -5 2 C-3.35 2 -1.7 2 0 2 C0 1.34 0 0.68 0 0 Z " fill="#C7DE5B" transform="translate(341,680)"/>
<path d="M0 0 C1.65 0 3.3 0 5 0 C5.66 1.65 6.32 3.3 7 5 C4.69 5 2.38 5 0 5 C0 3.35 0 1.7 0 0 Z " fill="#A8A7A7" transform="translate(873,529)"/>
<path d="M0 0 C-1.38188453 3.21043882 -2.92421903 5.04936365 -5.625 7.25 C-6.57246094 8.03117187 -6.57246094 8.03117187 -7.5390625 8.828125 C-8.02117188 9.21484375 -8.50328125 9.6015625 -9 10 C-8.42110619 6.71245489 -7.45171589 5.06327505 -5.0625 2.75 C-4.53785156 2.22921875 -4.01320313 1.7084375 -3.47265625 1.171875 C-2 0 -2 0 0 0 Z " fill="#181616" transform="translate(717,467)"/>
<path d="M0 0 C2.42130331 3.63195496 2.21022785 5.38349348 2.125 9.6875 C2.10695313 10.86699219 2.08890625 12.04648437 2.0703125 13.26171875 C2.03550781 14.61716797 2.03550781 14.61716797 2 16 C1.67 16 1.34 16 1 16 C0.93941406 15.39671875 0.87882812 14.7934375 0.81640625 14.171875 C0.69072266 12.97304688 0.69072266 12.97304688 0.5625 11.75 C0.48128906 10.96109375 0.40007812 10.1721875 0.31640625 9.359375 C0.05958718 7.01956386 0.05958718 7.01956386 -0.59765625 4.890625 C-1 3 -1 3 0 0 Z " fill="#B5D428" transform="translate(351,635)"/>
<path d="M0 0 C0.66 0.66 1.32 1.32 2 2 C2.99 2 3.98 2 5 2 C1.535 4.97 1.535 4.97 -2 8 C-1.34 5.36 -0.68 2.72 0 0 Z " fill="#211F1F" transform="translate(525,474)"/>
<path d="M0 0 C1.485 0.99 1.485 0.99 3 2 C3.1875 4.625 3.1875 4.625 3 7 C2.01 6.67 1.02 6.34 0 6 C-0.38218767 4.34385343 -0.71395102 2.67542976 -1 1 C-0.67 0.67 -0.34 0.34 0 0 Z " fill="#302E2E" transform="translate(878,534)"/>
<path d="M0 0 C3.24208567 0.35049575 4.61527704 0.56221181 6.8125 3.0625 C7.204375 3.701875 7.59625 4.34125 8 5 C5 5 5 5 2.3125 2.5 C1.549375 1.675 0.78625 0.85 0 0 Z " fill="#2C2A2A" transform="translate(689,461)"/>
</svg>
